<svg width="107" height="16" viewBox="0 0 107 16" fill="none" xmlns="http://www.w3.org/2000/svg">
<path d="M106.785 15.5004C106.586 15.5392 106.266 15.5829 105.834 15.6362C105.403 15.6896 104.898 15.738 104.316 15.7865C103.735 15.835 103.08 15.8835 102.357 15.9223C101.635 15.9611 100.883 15.9805 100.098 15.9805C98.5316 15.9805 97.2515 15.8447 96.2574 15.5732C95.2634 15.3016 94.4827 14.9428 93.9105 14.4918C93.3383 14.0409 92.9456 13.5172 92.7371 12.9256C92.5285 12.3341 92.4219 11.7279 92.4219 11.1024C92.4219 10.2781 92.548 9.55558 92.7953 8.93491C93.0474 8.31424 93.4596 7.79054 94.0317 7.36868C94.6039 6.94682 95.3507 6.63164 96.2768 6.41828C97.1981 6.20978 98.3231 6.10309 99.6469 6.10309C100.408 6.10309 101.131 6.12734 101.814 6.18068C102.493 6.22917 103.007 6.27766 103.347 6.31645C103.347 5.61335 103.23 5.03147 103.002 4.57082C102.774 4.11016 102.454 3.74649 102.052 3.48464C101.65 3.2228 101.169 3.04338 100.607 2.94156C100.044 2.83973 99.4238 2.79124 98.7401 2.79124C97.5957 2.79124 96.6793 2.92216 95.9859 3.18401C95.2925 3.44585 94.8367 3.66405 94.6185 3.84832C94.4972 3.74649 94.3324 3.55738 94.119 3.27614C93.9105 2.9949 93.8038 2.65547 93.8038 2.253C93.8038 1.97176 93.8814 1.69536 94.0269 1.42382C94.1772 1.15228 94.4439 0.909823 94.827 0.701317C95.2052 0.49281 95.7192 0.323096 96.3593 0.201871C97.0042 0.0806465 97.814 0.0224609 98.7983 0.0224609C99.9814 0.0224609 101.058 0.13884 102.033 0.366743C103.007 0.599494 103.841 0.963163 104.544 1.46746C105.243 1.97175 105.795 2.63122 106.183 3.45555C106.571 4.27988 106.77 5.27392 106.77 6.43767V15.5004H106.785ZM103.385 8.81853C103.187 8.77974 102.808 8.71671 102.256 8.63912C101.703 8.55669 100.874 8.5179 99.7729 8.5179C98.4104 8.5179 97.4115 8.72155 96.7957 9.13371C96.1702 9.54588 95.8647 10.1908 95.8647 11.0733C95.8647 11.437 95.9277 11.7667 96.0586 12.0674C96.1895 12.368 96.4174 12.625 96.7375 12.8335C97.0575 13.042 97.4939 13.2069 98.0467 13.3135C98.5995 13.4251 99.288 13.4784 100.108 13.4784C101.029 13.4784 101.766 13.4445 102.304 13.3717C102.847 13.3038 103.206 13.2457 103.39 13.2069V8.81853H103.385Z" fill="#231F20"/>
<path d="M74.9316 6.45724C74.9316 5.4535 75.1159 4.55644 75.4893 3.76605C75.8627 2.97566 76.3718 2.30165 77.0264 1.74887C77.6762 1.19608 78.452 0.774221 79.3442 0.483281C80.2364 0.192342 81.2159 0.046875 82.2779 0.046875C83.3398 0.046875 84.3241 0.192342 85.2261 0.483281C86.128 0.774221 86.9087 1.19608 87.5584 1.74887C88.2082 2.30165 88.7173 2.97566 89.0762 3.76605C89.4398 4.55644 89.6192 5.45835 89.6192 6.45724V15.5782H86.191V7.33006C86.191 5.9675 85.8564 4.92496 85.197 4.217C84.5375 3.5042 83.5629 3.14538 82.2779 3.14538C80.9735 3.14538 79.994 3.5042 79.3442 4.217C78.6945 4.9298 78.3647 5.9675 78.3647 7.33006V15.5782H74.9316V6.45724Z" fill="#231F20"/>
<path d="M0 5.8606C0 4.89565 0.169713 4.05193 0.513992 3.33428C0.85827 2.61178 1.32377 2.01051 1.91535 1.52561C2.50693 1.04556 3.20518 0.677033 4.00526 0.429734C4.80535 0.177587 5.68302 0.0515137 6.62372 0.0515137C7.86991 0.0515137 8.98033 0.27942 9.96468 0.744923C10.949 1.20558 11.7297 1.88929 12.3116 2.7912C12.8935 1.88929 13.6645 1.20558 14.6294 0.744923C15.5944 0.284269 16.6854 0.0515137 17.9122 0.0515137C18.8335 0.0515137 19.6966 0.172738 20.5015 0.415188C21.3016 0.657638 21.995 1.01646 22.5769 1.49651C23.1588 1.98141 23.6194 2.57784 23.9637 3.30034C24.3031 4.02284 24.4777 4.86656 24.4777 5.82666V15.5828H21.0446V7.00497C21.0446 5.61815 20.7343 4.62896 20.1136 4.03739C19.4929 3.44581 18.6492 3.15002 17.5873 3.15002C16.5642 3.15002 15.7059 3.47975 15.0125 4.14406C14.3191 4.80838 13.9748 5.88 13.9748 7.36379V15.5828H10.5417V7.36379C10.5417 5.88 10.1974 4.80838 9.50402 4.14406C8.81546 3.4846 7.95235 3.15002 6.93406 3.15002C5.89153 3.15002 5.0478 3.45066 4.40773 4.05193C3.76281 4.65321 3.44278 5.64725 3.44278 7.03407V15.5828H0.00970005V5.8606H0Z" fill="#231F20"/>
<path d="M27.9638 2.06383C27.9638 1.50135 28.1238 1.09403 28.4487 0.846727C28.7688 0.594579 29.2197 0.468506 29.8016 0.468506C30.1604 0.468506 30.4902 0.516995 30.7956 0.604277C31.0963 0.696408 31.2999 0.759449 31.3969 0.798241V8.71665C31.3969 10.0792 31.7169 11.1217 32.3619 11.8345C33.0019 12.5473 33.9863 12.9013 35.31 12.9013C36.6338 12.9013 37.6182 12.5473 38.2582 11.8345C38.9032 11.1217 39.2232 10.0841 39.2232 8.71665V2.06383C39.2232 1.50135 39.3832 1.09403 39.7032 0.846727C40.0233 0.594579 40.4694 0.468506 41.027 0.468506C41.4052 0.468506 41.7495 0.516995 42.0502 0.604277C42.3508 0.696408 42.5496 0.759449 42.6514 0.798241V9.46823C42.6514 10.4914 42.4769 11.4127 42.1229 12.2225C41.7738 13.0322 41.2695 13.7208 40.6197 14.2833C39.9699 14.8458 39.1892 15.2725 38.2873 15.5634C37.3854 15.8544 36.3914 15.9998 35.3052 15.9998C34.2239 15.9998 33.2298 15.8544 32.3279 15.5634C31.426 15.2725 30.6502 14.8458 30.0101 14.2833C29.3652 13.7208 28.8657 13.0322 28.5021 12.2225C28.1432 11.4078 27.959 10.4914 27.959 9.46823V2.06383H27.9638Z" fill="#231F20"/>
<path d="M47.8797 1.56946C46.7451 2.5829 46.1777 4.01335 46.1777 5.86081H46.1826V15.583H49.6157V6.85001C49.6157 4.36733 50.7891 3.12113 53.136 3.12113C53.4374 3.12113 53.7065 3.14193 53.9592 3.17843C55.5508 3.51686 56.5731 4.19811 57.4522 4.94264C57.5776 4.51104 57.8719 3.69006 58.1424 3.2109C58.4466 2.67219 58.6618 2.3547 58.9135 2.07582C57.3681 0.944198 55.4069 0.0468979 52.7373 0.0468979L52.7363 0.047737C52.6887 0.0471632 52.6409 0.046875 52.593 0.046875C50.5855 0.046875 49.0144 0.556019 47.8797 1.56946Z" fill="#231F20"/>
<path d="M61.3927 9.41026C61.3927 9.41026 61.1566 8.65667 61.2346 7.75067L58.136 5.5713C57.9195 6.33679 57.7705 7.17003 57.7705 7.97981C57.7705 10.8941 59.2349 13.401 61.4848 14.8023L63.6475 12.5476C62.3043 11.7572 61.5964 10.4043 61.3927 9.41026Z" fill="url(#paint0_linear_797_854)"/>
<path d="M70.324 11.9026C70.324 11.9026 69.8683 12.2614 69.0633 12.659C68.0935 13.1342 66.8376 13.3961 65.3005 13.1536C64.6653 13.0518 64.1173 12.8384 63.6421 12.5572L61.8856 13.1536L61.4795 14.812C62.6626 15.549 64.0592 15.9951 65.5963 15.9951C69.4609 15.9951 71.4587 13.7064 71.4587 13.7064L71.2899 12.5572L70.324 11.9026Z" fill="url(#paint1_linear_797_854)"/>
<path d="M73.3751 10.3699C73.6272 9.40015 72.9969 9.06557 72.541 9.70564C70.9468 11.7653 69.2988 12.5465 69.2988 12.5465L70.3242 14.6095C72.1919 13.4742 73.0647 11.5628 73.3751 10.3699Z" fill="url(#paint2_linear_797_854)"/>
<path d="M65.7623 3.05792C68.1868 3.05792 69.5445 4.74537 69.3166 5.53575L72.706 4.75506C72.6187 4.19743 72.3957 3.60585 71.9205 2.94639C70.684 1.22985 68.3904 0.0563965 65.4131 0.0563965C63.3647 0.0563965 61.1751 1.07205 59.7428 2.63571C59.7206 2.65994 58.7248 3.6577 58.1396 5.57078C59.2768 6.9371 61.2359 7.74953 61.2359 7.74953C61.2763 6.52705 61.7557 5.42464 62.2901 4.74149C62.7957 4.04353 63.8843 3.05792 65.7623 3.05792Z" fill="url(#paint3_linear_797_854)"/>
<path d="M66.2172 6.29223C67.8125 6.4377 69.0926 6.32616 69.3157 5.53578L72.7051 4.75024C72.8069 5.4291 72.6954 6.04493 72.4142 6.59286C71.9293 7.54811 70.363 8.75551 68.2683 9.10949C67.2141 9.2876 65.7785 9.18777 64.423 8.93461C64.2098 8.89478 63.3312 8.66831 62.2122 8.19545C62.1558 7.53881 62.4924 6.10045 63.0976 5.3391C64.1274 5.85502 64.9155 6.06443 65.0168 6.08932C65.3939 6.18196 65.7923 6.25446 66.2172 6.29223Z" fill="url(#paint4_linear_797_854)"/>
<path d="M62.6393 4.32467C63.2339 3.70698 64.238 3.05792 65.762 3.05792C68.1865 3.05792 69.5442 4.74537 69.3163 5.53575C69.2246 5.86068 68.9543 6.07087 68.5568 6.19565C69.2711 5.99032 70.1927 5.39983 70.5994 4.47868C71.2859 2.92402 70.23 1.06011 67.5634 0.277547C66.8958 0.133664 66.1768 0.0563965 65.4129 0.0563965C63.5909 0.0563965 61.6573 0.859888 60.2441 2.13781L62.6393 4.32467Z" fill="url(#paint5_linear_797_854)"/>
<defs>
<linearGradient id="paint0_linear_797_854" x1="64.8707" y1="14.8023" x2="58.913" y2="9.83566" gradientUnits="userSpaceOnUse">
<stop stop-color="#FFC300"/>
<stop offset="1" stop-color="#FF7A00"/>
</linearGradient>
<linearGradient id="paint1_linear_797_854" x1="67.8162" y1="13.3709" x2="56.7309" y2="5.39385" gradientUnits="userSpaceOnUse">
<stop stop-color="#FFBB00"/>
<stop offset="1" stop-color="#FF7A00"/>
</linearGradient>
<linearGradient id="paint2_linear_797_854" x1="75.6735" y1="9.90075" x2="70.1086" y2="14.0253" gradientUnits="userSpaceOnUse">
<stop stop-color="#FF7A00"/>
<stop offset="1" stop-color="#FFBB00"/>
</linearGradient>
<linearGradient id="paint3_linear_797_854" x1="78.5156" y1="11.2001" x2="63.0832" y2="1.44372" gradientUnits="userSpaceOnUse">
<stop stop-color="#F8432E"/>
<stop offset="1" stop-color="#FF7A00"/>
</linearGradient>
<linearGradient id="paint4_linear_797_854" x1="72.7422" y1="3.16077" x2="63.1409" y2="7.46753" gradientUnits="userSpaceOnUse">
<stop stop-color="#FF6E00"/>
<stop offset="1" stop-color="#F8432E"/>
</linearGradient>
<linearGradient id="paint5_linear_797_854" x1="77.1362" y1="5.41573" x2="65.9889" y2="5.47349" gradientUnits="userSpaceOnUse">
<stop stop-color="#8E1607"/>
<stop offset="1" stop-color="#A62415" stop-opacity="0"/>
</linearGradient>
</defs>
</svg>
