<svg width="399" height="60" viewBox="0 0 399 60" fill="none" xmlns="http://www.w3.org/2000/svg">
<path d="M398.63 57.7726C397.889 57.9172 396.696 58.0799 395.088 58.2787C393.479 58.4775 391.6 58.6582 389.431 58.8389C387.262 59.0197 384.822 59.2004 382.13 59.345C379.437 59.4896 376.635 59.5619 373.708 59.5619C367.87 59.5619 363.099 59.0558 359.394 58.0438C355.689 57.0317 352.779 55.6943 350.647 54.0135C348.514 52.3327 347.05 50.3809 346.273 48.176C345.496 45.9711 345.098 43.712 345.098 41.3806C345.098 38.3082 345.568 35.6154 346.49 33.302C347.43 30.9887 348.966 29.0368 351.098 27.4645C353.231 25.8921 356.014 24.7174 359.466 23.9222C362.9 23.1451 367.093 22.7475 372.027 22.7475C374.864 22.7475 377.557 22.8378 380.105 23.0366C382.636 23.2174 384.551 23.3981 385.816 23.5427C385.816 20.9221 385.383 18.7534 384.533 17.0365C383.684 15.3195 382.491 13.9641 380.991 12.9881C379.491 12.0122 377.702 11.3435 375.605 10.964C373.509 10.5845 371.195 10.4037 368.647 10.4037C364.382 10.4037 360.966 10.8917 358.382 11.8676C355.797 12.8436 354.099 13.6568 353.285 14.3436C352.833 13.9641 352.219 13.2592 351.424 12.211C350.647 11.1628 350.249 9.89769 350.249 8.39765C350.249 7.34942 350.538 6.31926 351.08 5.30718C351.641 4.2951 352.635 3.39145 354.062 2.61432C355.472 1.83718 357.388 1.20464 359.773 0.752816C362.177 0.300995 365.195 0.0841293 368.864 0.0841293C373.274 0.0841293 377.286 0.51789 380.919 1.36731C384.551 2.23481 387.66 3.59025 390.28 5.46983C392.883 7.34941 394.943 9.80732 396.389 12.8797C397.835 15.9521 398.576 19.657 398.576 23.9945V57.7726H398.63ZM385.961 32.8683C385.22 32.7237 383.81 32.4887 381.75 32.1996C379.69 31.8923 376.599 31.7478 372.497 31.7478C367.418 31.7478 363.695 32.5068 361.4 34.043C359.069 35.5792 357.93 37.9829 357.93 41.2721C357.93 42.6276 358.165 43.8566 358.653 44.9771C359.141 46.0976 359.99 47.0555 361.183 47.8326C362.376 48.6097 364.002 49.2242 366.063 49.6218C368.123 50.0375 370.689 50.2363 373.744 50.2363C377.178 50.2363 379.925 50.1098 381.931 49.8387C383.955 49.5856 385.292 49.3688 385.979 49.2242V32.8683H385.961Z" fill="white"/>
<path d="M279.91 24.0668C279.91 20.3257 280.596 16.9822 281.988 14.0363C283.38 11.0904 285.277 8.57832 287.717 6.51801C290.139 4.45771 293.03 2.88537 296.356 1.801C299.681 0.716628 303.332 0.174454 307.29 0.174454C311.248 0.174454 314.917 0.716628 318.278 1.801C321.64 2.88537 324.549 4.45771 326.971 6.51801C329.393 8.57832 331.291 11.0904 332.628 14.0363C333.984 16.9822 334.652 20.3437 334.652 24.0668V58.0618H321.875V27.3199C321.875 22.2414 320.628 18.3557 318.17 15.7171C315.712 13.0604 312.079 11.723 307.29 11.723C302.428 11.723 298.778 13.0604 296.356 15.7171C293.934 18.3738 292.705 22.2414 292.705 27.3199V58.0618H279.91V24.0668Z" fill="white"/>
<path d="M0.629883 21.8437C0.629883 18.2472 1.26243 15.1025 2.5456 12.4278C3.82877 9.7349 5.56376 7.49388 7.76865 5.6866C9.97354 3.89738 12.576 2.52383 15.558 1.60212C18.5401 0.662328 21.8113 0.192436 25.3174 0.192436C29.9621 0.192436 34.1008 1.04187 37.7696 2.77687C41.4384 4.49379 44.3481 7.04206 46.5168 10.4036C48.6856 7.04206 51.5591 4.49379 55.1556 2.77687C58.7521 1.05995 62.8185 0.192436 67.391 0.192436C70.8248 0.192436 74.0418 0.644257 77.0419 1.5479C80.0239 2.45154 82.6083 3.78892 84.777 5.57814C86.9458 7.38542 88.6627 9.60838 89.9459 12.3012C91.211 14.9941 91.8616 18.1388 91.8616 21.7172V58.0797H79.066V26.1089C79.066 20.9401 77.9093 17.2532 75.596 15.0483C73.2827 12.8434 70.138 11.741 66.1801 11.741C62.3667 11.741 59.1678 12.9699 56.5834 15.4459C53.999 17.9219 52.7158 21.916 52.7158 27.4463V58.0797H39.9202V27.4463C39.9202 21.916 38.6371 17.9219 36.0526 15.4459C33.4863 12.988 30.2693 11.741 26.4741 11.741C22.5884 11.741 19.4437 12.8615 17.0581 15.1025C14.6544 17.3436 13.4616 21.0485 13.4616 26.2173V58.0797H0.666036V21.8437H0.629883Z" fill="white"/>
<path d="M104.856 7.69289C104.856 5.59644 105.453 4.0783 106.663 3.15659C107.856 2.2168 109.537 1.74691 111.706 1.74691C113.043 1.74691 114.272 1.92764 115.411 2.25295C116.531 2.59633 117.29 2.8313 117.652 2.97588V32.4888C117.652 37.5673 118.845 41.4529 121.248 44.1097C123.634 46.7664 127.303 48.0857 132.236 48.0857C137.17 48.0857 140.839 46.7664 143.225 44.1097C145.628 41.4529 146.821 37.5854 146.821 32.4888V7.69289C146.821 5.59644 147.418 4.0783 148.61 3.15659C149.803 2.2168 151.466 1.74691 153.544 1.74691C154.954 1.74691 156.237 1.92764 157.358 2.25295C158.478 2.59633 159.219 2.8313 159.599 2.97588V35.2901C159.599 39.1035 158.948 42.5373 157.629 45.5555C156.328 48.5737 154.448 51.14 152.026 53.2364C149.605 55.3329 146.695 56.9233 143.333 58.0077C139.972 59.092 136.267 59.6342 132.218 59.6342C128.188 59.6342 124.483 59.092 121.122 58.0077C117.76 56.9233 114.868 55.3329 112.483 53.2364C110.079 51.14 108.218 48.5737 106.862 45.5555C105.525 42.5193 104.838 39.1035 104.838 35.2901V7.69289H104.856Z" fill="white"/>
<path d="M179.081 5.84932C174.852 9.62655 172.738 14.958 172.738 21.8438H172.756V58.0798H185.551V25.5306C185.551 16.2774 189.925 11.6326 198.672 11.6326C199.795 11.6326 200.798 11.7101 201.74 11.8462C207.672 13.1076 211.483 15.6467 214.759 18.4216C215.226 16.813 216.323 13.7531 217.332 11.9672C218.465 9.95934 219.268 8.77601 220.206 7.73662C214.446 3.5189 207.136 0.174539 197.186 0.174539L197.182 0.177666C197.005 0.175528 196.827 0.174454 196.648 0.174454C189.166 0.174454 183.31 2.0721 179.081 5.84932Z" fill="white"/>
<path d="M229.45 35.0729C229.45 35.0729 228.57 32.2642 228.861 28.8874L217.312 20.7646C216.505 23.6177 215.95 26.7233 215.95 29.7415C215.95 40.6032 221.408 49.9469 229.794 55.1699L237.854 46.7661C232.848 43.8202 230.209 38.7779 229.45 35.0729Z" fill="url(#paint0_linear_736_652)"/>
<path d="M262.74 44.3628C262.74 44.3628 261.042 45.7002 258.042 47.1821C254.427 48.9533 249.746 49.9292 244.017 49.0256C241.65 48.646 239.607 47.8508 237.836 46.8026L231.289 49.0256L229.776 55.2065C234.185 57.9536 239.39 59.6163 245.119 59.6163C259.524 59.6163 266.97 51.0859 266.97 51.0859L266.34 46.8026L262.74 44.3628Z" fill="url(#paint1_linear_736_652)"/>
<path d="M274.108 38.6512C275.048 35.0366 272.699 33.7896 271 36.1752C265.058 43.8517 258.916 46.7635 258.916 46.7635L262.737 54.4525C269.699 50.2213 272.952 43.0971 274.108 38.6512Z" fill="url(#paint2_linear_736_652)"/>
<path d="M245.734 11.3976C254.77 11.3976 259.831 17.6869 258.981 20.6328L271.614 17.723C271.289 15.6447 270.457 13.4398 268.686 10.9819C264.078 4.58409 255.529 0.21048 244.432 0.21048C236.798 0.21048 228.637 3.99598 223.298 9.82394C223.216 9.91424 219.504 13.633 217.323 20.7633C221.561 25.8558 228.863 28.8838 228.863 28.8838C229.014 24.3275 230.801 20.2186 232.793 17.6724C234.677 15.0711 238.734 11.3976 245.734 11.3976Z" fill="url(#paint3_linear_736_652)"/>
<path d="M247.433 23.4521C253.379 23.9943 258.15 23.5786 258.982 20.6327L271.614 17.7049C271.994 20.2351 271.578 22.5304 270.53 24.5726C268.723 28.133 262.885 32.6331 255.078 33.9524C251.149 34.6163 245.798 34.2442 240.746 33.3006C239.951 33.1522 236.677 32.3081 232.506 30.5457C232.296 28.0983 233.55 22.7373 235.806 19.8997C239.644 21.8226 242.582 22.6031 242.959 22.6958C244.365 23.0411 245.849 23.3114 247.433 23.4521Z" fill="url(#paint4_linear_736_652)"/>
<path d="M234.095 16.1189C236.311 13.8167 240.054 11.3975 245.734 11.3975C254.77 11.3975 259.831 17.6869 258.981 20.6328C258.639 21.8438 257.632 22.6272 256.15 23.0923C258.813 22.327 262.248 20.1262 263.764 16.6929C266.322 10.8985 262.386 3.95144 252.448 1.03474C249.96 0.498466 247.28 0.21048 244.432 0.21048C237.642 0.21048 230.435 3.2052 225.168 7.96818L234.095 16.1189Z" fill="url(#paint5_linear_736_652)"/>
<defs>
<linearGradient id="paint0_linear_736_652" x1="242.413" y1="55.1699" x2="220.208" y2="36.6584" gradientUnits="userSpaceOnUse">
<stop stop-color="#FFC300"/>
<stop offset="1" stop-color="#FF7A00"/>
</linearGradient>
<linearGradient id="paint1_linear_736_652" x1="253.394" y1="49.8352" x2="212.077" y2="20.1038" gradientUnits="userSpaceOnUse">
<stop stop-color="#FFBB00"/>
<stop offset="1" stop-color="#FF7A00"/>
</linearGradient>
<linearGradient id="paint2_linear_736_652" x1="282.675" y1="36.9024" x2="261.934" y2="52.2752" gradientUnits="userSpaceOnUse">
<stop stop-color="#FF7A00"/>
<stop offset="1" stop-color="#FFBB00"/>
</linearGradient>
<linearGradient id="paint3_linear_736_652" x1="293.267" y1="41.7444" x2="235.749" y2="5.38123" gradientUnits="userSpaceOnUse">
<stop stop-color="#F8432E"/>
<stop offset="1" stop-color="#FF7A00"/>
</linearGradient>
<linearGradient id="paint4_linear_736_652" x1="271.753" y1="11.7807" x2="235.967" y2="27.8327" gradientUnits="userSpaceOnUse">
<stop stop-color="#FF6E00"/>
<stop offset="1" stop-color="#F8432E"/>
</linearGradient>
<linearGradient id="paint5_linear_736_652" x1="288.127" y1="20.1854" x2="246.58" y2="20.4007" gradientUnits="userSpaceOnUse">
<stop stop-color="#8E1607"/>
<stop offset="1" stop-color="#A62415" stop-opacity="0"/>
</linearGradient>
</defs>
</svg>
